# xmcd
#
# Track frame offsets:
#	150
#	23786
#	36033
#	55617
#	70542
#	82973
#
# Disc length: 1253 seconds
#
# Revision: 3
# Processed by: cddbd v1.5.2PL0 Copyright (c) Steve Scherf et al.
# Submitted via: audiograbber 1.83.01
#
DISCID=3a04e306
DTITLE=Whitmore, William Elliott - Latitudes
DYEAR=2005
DGENRE=Folk
TTITLE0=One man's shame
TTITLE1=Take it on the chin
TTITLE2=Sometimes our dreams float like anchors (Winter version)
TTITLE3=Have mercy
TTITLE4=Buildin' me a home
TTITLE5=The prairie yields to the plow
EXTD=
EXTT0=
EXTT1=
EXTT2=
EXTT3=
EXTT4=
EXTT5=
PLAYORDER=
